<?xml version="1.0" encoding="utf-8"?>
<!-- Generator: Adobe Illustrator 24.1.1, SVG Export Plug-In . SVG Version: 6.00 Build 0)  -->
<svg version="1.1" id="Capa_1" xmlns="http://www.w3.org/2000/svg" xmlns:xlink="http://www.w3.org/1999/xlink" x="0px" y="0px"
	 viewBox="0 0 511.99 511.99" style="enable-background:new 0 0 511.99 511.99;" xml:space="preserve">
<style type="text/css">
	.st0{fill:#FFFDFF;}
</style>
<g>
	<g>
		<path class="st0" d="M278.62,224.01V110.24c24.34,4.11,47.28,14.09,66.9,29.09c3.91,2.68,8.5,4.14,13.25,4.2
			c15.22,0,27.63-12.25,27.79-27.47c0.03-6.53-2.52-12.8-7.11-17.45c-28.34-24.27-63.89-38.59-101.16-40.72V19.75
			c0-10.89-8.82-19.72-19.71-19.72C258.36,0,258.13,0,257.91,0c-11.05-0.16-20.17,8.66-20.33,19.75v36.84
			c-72.72,5.17-122.17,50.09-122.17,109.88c0,73.36,62.38,93.73,122.17,109.89v129.28c-31.54-4.23-61.28-17.32-85.65-37.81
			c-4.59-3.65-10.28-5.69-16.16-5.82c-14.9,1.03-26.37,13.51-26.18,28.44c-0.03,6.53,2.52,12.8,7.11,17.45
			c33.39,30.06,76.31,47.35,121.2,48.8v35.55c0,0.23,0.03,0.45,0.03,0.68c0.52,11.05,9.92,19.58,20.97,19.04
			c10.89,0,19.71-8.82,19.71-19.71v-36.2c88.23-5.82,123.78-59.47,123.78-116.35C402.4,263.44,338.41,240.17,278.62,224.01z
			 M237.9,213.66c-35.23-10.34-62.7-21.01-62.7-51.06s24.89-51.71,62.7-54.62V213.66z M278.62,406.29V288.65
			c36.52,10.34,64.96,24.24,64.64,58.17C343.26,371.38,326.45,400.47,278.62,406.29z"/>
	</g>
</g>
</svg>
