<?xml version="1.0" encoding="utf-8"?>
<!-- Generator: Adobe Illustrator 24.1.1, SVG Export Plug-In . SVG Version: 6.00 Build 0)  -->
<svg version="1.1" id="Camada_1" xmlns="http://www.w3.org/2000/svg" xmlns:xlink="http://www.w3.org/1999/xlink" x="0px" y="0px"
	 viewBox="0 0 6.99 1.02" style="enable-background:new 0 0 6.99 1.02;" xml:space="preserve">
<style type="text/css">
	.st0{fill:#FFFFFF;}
	.st1{fill:#F4E721;}
</style>
<g>
	<path class="st0" d="M0.29,0.75l0.06-0.31c0.01-0.06,0.02-0.1,0.02-0.14h0.09L0.45,0.37h0C0.49,0.31,0.54,0.29,0.6,0.29
		c0.06,0,0.09,0.04,0.1,0.09c0.04-0.06,0.09-0.09,0.15-0.09c0.06,0,0.1,0.04,0.1,0.11c0,0.02,0,0.05-0.01,0.08L0.89,0.75h-0.1
		l0.05-0.26c0-0.02,0.01-0.04,0.01-0.06c0-0.03-0.01-0.06-0.05-0.06c-0.04,0-0.1,0.06-0.11,0.15L0.64,0.75h-0.1l0.05-0.26
		c0-0.02,0.01-0.04,0.01-0.06c0-0.03-0.01-0.06-0.05-0.06c-0.04,0-0.1,0.06-0.11,0.15L0.39,0.75H0.29z"/>
	<path class="st0" d="M1.28,0.75c0-0.03,0-0.06,0.01-0.1h0c-0.04,0.08-0.1,0.11-0.15,0.11c-0.07,0-0.12-0.06-0.12-0.15
		c0-0.15,0.1-0.33,0.3-0.33c0.05,0,0.1,0.01,0.13,0.02L1.39,0.55C1.38,0.61,1.37,0.7,1.37,0.75H1.28z M1.32,0.37
		c-0.01,0-0.02,0-0.04,0c-0.1,0-0.17,0.13-0.17,0.22c0,0.05,0.01,0.08,0.06,0.08c0.05,0,0.1-0.06,0.12-0.17L1.32,0.37z"/>
	<path class="st0" d="M1.67,0.3L1.58,0.74C1.57,0.82,1.55,0.86,1.53,0.89C1.5,0.93,1.46,0.94,1.41,0.94c-0.02,0-0.04,0-0.05-0.01
		l0.01-0.08c0.01,0,0.02,0,0.03,0c0.03,0,0.06-0.02,0.08-0.11L1.56,0.3H1.67z M1.58,0.17c0-0.04,0.03-0.06,0.06-0.06
		c0.03,0,0.06,0.02,0.05,0.06c0,0.04-0.03,0.06-0.06,0.06C1.6,0.23,1.58,0.21,1.58,0.17z"/>
	<path class="st0" d="M2.12,0.46c0,0.15-0.1,0.3-0.25,0.3c-0.11,0-0.17-0.08-0.17-0.18c0-0.15,0.1-0.3,0.25-0.3
		C2.07,0.29,2.12,0.38,2.12,0.46z M1.81,0.58c0,0.06,0.02,0.1,0.08,0.1c0.08,0,0.12-0.13,0.12-0.22c0-0.04-0.02-0.09-0.07-0.09
		C1.86,0.37,1.81,0.49,1.81,0.58z"/>
	<path class="st0" d="M2.16,0.75l0.06-0.31c0.01-0.06,0.02-0.1,0.02-0.14h0.09L2.32,0.37h0c0.04-0.06,0.09-0.09,0.15-0.09
		c0.06,0,0.11,0.04,0.11,0.12c0,0.02,0,0.05-0.01,0.08L2.52,0.75h-0.1l0.05-0.27c0-0.02,0.01-0.04,0.01-0.05
		c0-0.03-0.01-0.06-0.05-0.06c-0.04,0-0.1,0.06-0.12,0.16L2.26,0.75H2.16z"/>
	<path class="st0" d="M2.97,0.73c-0.04,0.02-0.1,0.03-0.15,0.03c-0.12,0-0.17-0.08-0.17-0.18c0-0.13,0.09-0.29,0.24-0.29
		c0.09,0,0.14,0.05,0.14,0.12c0,0.12-0.12,0.16-0.28,0.15c0,0.02,0,0.05,0.01,0.07c0.02,0.03,0.05,0.05,0.09,0.05
		c0.05,0,0.08-0.01,0.11-0.03L2.97,0.73z M2.88,0.37c-0.06,0-0.1,0.06-0.12,0.12c0.1,0,0.17-0.02,0.17-0.07
		C2.93,0.38,2.91,0.37,2.88,0.37z"/>
	<path class="st0" d="M3.06,0.65c0.02,0.01,0.06,0.03,0.1,0.03c0.04,0,0.07-0.03,0.07-0.06c0-0.03-0.02-0.05-0.06-0.07
		C3.12,0.52,3.09,0.48,3.09,0.43c0-0.09,0.07-0.15,0.18-0.15c0.04,0,0.08,0.01,0.1,0.02L3.34,0.38C3.32,0.38,3.3,0.37,3.26,0.37
		c-0.04,0-0.07,0.02-0.07,0.05c0,0.03,0.02,0.04,0.05,0.06C3.3,0.51,3.33,0.55,3.33,0.61c0,0.1-0.08,0.15-0.18,0.15
		c-0.05,0-0.1-0.01-0.12-0.03L3.06,0.65z"/>
	<path class="st0" d="M3.4,0.72c0-0.02,0.02-0.04,0.04-0.04c0.02,0,0.04,0.02,0.04,0.04c0,0.02-0.02,0.04-0.04,0.04
		C3.42,0.76,3.4,0.74,3.4,0.72z"/>
	<path class="st0" d="M3.59,0.75l0.08-0.41H3.61L3.62,0.3h0.06l0-0.03c0.02-0.12,0.09-0.2,0.19-0.2c0.04,0,0.08,0.01,0.09,0.02
		L3.95,0.14C3.93,0.12,3.9,0.11,3.86,0.11c-0.08,0-0.12,0.07-0.14,0.16l0,0.02h0.23L3.87,0.75H3.82L3.9,0.34H3.71L3.64,0.75H3.59z"
		/>
	<path class="st0" d="M4.02,0.75l0.06-0.33C4.09,0.38,4.09,0.34,4.1,0.3h0.04L4.12,0.4h0c0.04-0.07,0.1-0.11,0.17-0.11
		c0.04,0,0.11,0.02,0.11,0.13c0,0.02,0,0.05-0.01,0.07L4.35,0.75H4.31l0.05-0.27c0-0.02,0.01-0.04,0.01-0.06
		c0-0.05-0.02-0.09-0.09-0.09c-0.06,0-0.16,0.07-0.18,0.19L4.06,0.75H4.02z"/>
	<path class="st0" d="M4.8,0.75c0-0.03,0-0.08,0.01-0.13h0c-0.05,0.1-0.12,0.14-0.19,0.14C4.54,0.76,4.5,0.7,4.5,0.62
		c0-0.16,0.12-0.33,0.3-0.33c0.04,0,0.08,0.01,0.1,0.01L4.86,0.54C4.84,0.63,4.84,0.71,4.84,0.75H4.8z M4.86,0.34
		c-0.01,0-0.03-0.01-0.06-0.01c-0.14,0-0.25,0.13-0.25,0.28c0,0.05,0.02,0.11,0.09,0.11c0.08,0,0.17-0.11,0.2-0.23L4.86,0.34z"/>
	<path class="st0" d="M4.97,0.75l0.06-0.33C5.04,0.38,5.05,0.34,5.05,0.3h0.04L5.08,0.4h0c0.04-0.07,0.1-0.11,0.17-0.11
		c0.04,0,0.11,0.02,0.11,0.13c0,0.02,0,0.05-0.01,0.07L5.3,0.75H5.26l0.05-0.27c0-0.02,0.01-0.04,0.01-0.06
		c0-0.05-0.02-0.09-0.09-0.09c-0.06,0-0.16,0.07-0.18,0.19L5.01,0.75H4.97z"/>
	<path class="st0" d="M5.75,0.73C5.73,0.74,5.68,0.76,5.61,0.76c-0.12,0-0.16-0.08-0.16-0.17c0-0.15,0.11-0.3,0.26-0.3
		c0.04,0,0.09,0.02,0.09,0.02L5.8,0.35C5.78,0.34,5.75,0.33,5.71,0.33c-0.13,0-0.21,0.14-0.21,0.26c0,0.08,0.04,0.14,0.13,0.14
		c0.05,0,0.09-0.02,0.11-0.03L5.75,0.73z"/>
	<path class="st0" d="M6.12,0.73C6.1,0.74,6.05,0.76,5.99,0.76c-0.11,0-0.16-0.09-0.16-0.17c0-0.13,0.1-0.29,0.23-0.29
		c0.08,0,0.12,0.05,0.12,0.1c0,0.12-0.15,0.14-0.3,0.14c-0.01,0.02,0,0.08,0.01,0.11C5.9,0.7,5.94,0.72,5.99,0.72
		c0.06,0,0.1-0.02,0.12-0.03L6.12,0.73z M6.06,0.33c-0.08,0-0.15,0.08-0.17,0.17c0.13,0,0.25-0.02,0.25-0.1
		C6.14,0.35,6.1,0.33,6.06,0.33z"/>
	<path class="st1" d="M6.34,0.83l0.02-0.09c-0.06,0-0.13-0.03-0.16-0.05l0.05-0.12C6.29,0.6,6.34,0.62,6.41,0.62
		c0.05,0,0.08-0.02,0.08-0.05c0-0.03-0.02-0.05-0.08-0.07C6.34,0.47,6.27,0.42,6.27,0.34c0-0.1,0.08-0.17,0.2-0.19l0.02-0.08h0.1
		L6.57,0.15c0.05,0,0.1,0.02,0.13,0.04L6.65,0.3C6.63,0.29,6.58,0.27,6.52,0.27c-0.05,0-0.07,0.02-0.07,0.04
		c0,0.02,0.03,0.04,0.09,0.07c0.07,0.04,0.13,0.09,0.13,0.16c0,0.12-0.1,0.18-0.21,0.19L6.44,0.83H6.34z"/>
</g>
</svg>
