<?xml version="1.0" encoding="utf-8"?>
<!-- Generator: Adobe Illustrator 24.0.1, SVG Export Plug-In . SVG Version: 6.00 Build 0)  -->
<svg version="1.1" id="Camada_1" xmlns="http://www.w3.org/2000/svg" xmlns:xlink="http://www.w3.org/1999/xlink" x="0px" y="0px"
	 viewBox="0 0 7 1" style="enable-background:new 0 0 7 1;" xml:space="preserve">
<style type="text/css">
	.st0{fill:#660A3E;}
	.st1{fill:#F4E721;}
</style>
<path class="st0" d="M0.3,0.7l0.1-0.3c0-0.1,0-0.1,0-0.1h0.1l0,0.1l0,0c0-0.1,0.1-0.1,0.2-0.1s0.1,0,0.1,0.1c0-0.1,0.1-0.1,0.1-0.1
	S1,0.3,1,0.4c0,0,0,0.1,0,0.1L0.9,0.7H0.8l0.1-0.3c0,0,0,0,0-0.1c0,0,0-0.1-0.1-0.1S0.7,0.4,0.7,0.5l0,0.2H0.5l0.1-0.3
	c0,0,0,0,0-0.1c0,0,0-0.1-0.1-0.1S0.5,0.4,0.4,0.5l0,0.2H0.3z"/>
<path class="st0" d="M1.3,0.7c0,0,0-0.1,0-0.1l0,0c0,0.1-0.1,0.1-0.1,0.1C1.1,0.8,1,0.7,1,0.6c0-0.2,0.1-0.3,0.3-0.3
	c0,0,0.1,0,0.1,0L1.4,0.5C1.4,0.6,1.4,0.7,1.3,0.7L1.3,0.7z M1.3,0.4C1.3,0.4,1.3,0.4,1.3,0.4c-0.1,0-0.2,0.1-0.2,0.2
	c0,0.1,0,0.1,0.1,0.1s0.1-0.1,0.1-0.2L1.3,0.4z"/>
<path class="st0" d="M1.7,0.3L1.6,0.7c0,0.1,0,0.1-0.1,0.1c0,0-0.1,0.1-0.1,0.1c0,0,0,0,0,0l0-0.1c0,0,0,0,0,0c0,0,0.1,0,0.1-0.1
	l0.1-0.4H1.7z M1.6,0.2C1.6,0.1,1.6,0.1,1.6,0.2c0.1-0.1,0.1,0,0.1,0C1.7,0.2,1.7,0.2,1.6,0.2C1.6,0.2,1.6,0.2,1.6,0.2z"/>
<path class="st0" d="M2.1,0.5c0,0.2-0.1,0.3-0.2,0.3c-0.1,0-0.2-0.1-0.2-0.2c0-0.2,0.1-0.3,0.2-0.3C2.1,0.3,2.1,0.4,2.1,0.5z
	 M1.8,0.6c0,0.1,0,0.1,0.1,0.1C2,0.7,2,0.5,2,0.5c0,0,0-0.1-0.1-0.1C1.9,0.4,1.8,0.5,1.8,0.6z"/>
<path class="st0" d="M2.2,0.7l0.1-0.3c0-0.1,0-0.1,0-0.1h0.1l0,0.1l0,0c0-0.1,0.1-0.1,0.2-0.1c0.1,0,0.1,0,0.1,0.1c0,0,0,0.1,0,0.1
	l0,0.3H2.4l0-0.3c0,0,0,0,0-0.1c0,0,0-0.1,0-0.1S2.3,0.4,2.3,0.5L2.2,0.7L2.2,0.7z"/>
<path class="st0" d="M3,0.7c0,0-0.1,0-0.2,0c-0.1,0-0.2-0.1-0.2-0.2c0-0.1,0.1-0.3,0.2-0.3C3,0.3,3,0.3,3,0.4c0,0.1-0.1,0.2-0.3,0.2
	c0,0,0,0.1,0,0.1c0,0,0,0.1,0.1,0.1C2.9,0.7,2.9,0.7,3,0.7L3,0.7z M2.9,0.4c-0.1,0-0.1,0.1-0.1,0.1C2.9,0.5,2.9,0.5,2.9,0.4
	C2.9,0.4,2.9,0.4,2.9,0.4z"/>
<path class="st0" d="M3.1,0.6C3.1,0.7,3.1,0.7,3.1,0.6c0.1,0,0.2,0,0.2,0c0,0,0-0.1-0.1-0.1c0,0-0.1-0.1-0.1-0.1
	c0-0.1,0.1-0.2,0.2-0.2c0,0,0.1,0,0.1,0l0,0.1c0,0,0,0-0.1,0s-0.1,0-0.1,0.1s0,0,0,0.1c0.1,0,0.1,0.1,0.1,0.1c0,0.1-0.1,0.1-0.2,0.1
	C3.1,0.8,3.1,0.7,3.1,0.6L3.1,0.6z"/>
<path class="st0" d="M3.4,0.7C3.4,0.7,3.4,0.7,3.4,0.7C3.5,0.7,3.5,0.7,3.4,0.7C3.5,0.7,3.5,0.8,3.4,0.7C3.4,0.8,3.4,0.7,3.4,0.7z"
	/>
<path class="st0" d="M3.6,0.7l0.1-0.4H3.6l0,0h0.1v0c0-0.1,0.1-0.2,0.2-0.2c0,0,0.1,0,0.1,0l0,0c0,0,0,0-0.1,0
	c-0.1,0-0.1,0.1-0.1,0.2v0H4L3.9,0.7h0l0.1-0.4H3.7L3.6,0.7L3.6,0.7z"/>
<path class="st0" d="M4,0.7l0.1-0.3c0,0,0-0.1,0-0.1h0l0,0.1l0,0c0-0.1,0.1-0.1,0.2-0.1c0,0,0.1,0,0.1,0.1c0,0,0,0.1,0,0.1l0,0.3h0
	l0.1-0.3c0,0,0,0,0-0.1c0-0.1,0-0.1-0.1-0.1c-0.1,0-0.2,0.1-0.2,0.2L4,0.7L4,0.7z"/>
<path class="st0" d="M4.8,0.7c0,0,0-0.1,0-0.1l0,0C4.8,0.7,4.7,0.8,4.6,0.8c-0.1,0-0.1-0.1-0.1-0.1c0-0.2,0.1-0.3,0.3-0.3
	c0,0,0.1,0,0.1,0l0,0.2C4.8,0.6,4.8,0.7,4.8,0.7L4.8,0.7z M4.9,0.3C4.9,0.3,4.8,0.3,4.9,0.3c-0.2,0-0.3,0.1-0.3,0.3
	c0,0.1,0,0.1,0.1,0.1c0.1,0,0.2-0.1,0.2-0.2L4.9,0.3z"/>
<path class="st0" d="M5,0.7L5,0.4c0,0,0-0.1,0-0.1h0l0,0.1l0,0c0-0.1,0.1-0.1,0.2-0.1c0,0,0.1,0,0.1,0.1c0,0,0,0.1,0,0.1l0,0.3h0
	l0.1-0.3c0,0,0,0,0-0.1c0-0.1,0-0.1-0.1-0.1c-0.1,0-0.2,0.1-0.2,0.2L5,0.7L5,0.7z"/>
<path class="st0" d="M5.8,0.7c0,0-0.1,0-0.1,0c-0.1,0-0.2-0.1-0.2-0.2c0-0.2,0.1-0.3,0.3-0.3c0,0,0.1,0,0.1,0v0c0,0-0.1,0-0.1,0
	c-0.1,0-0.2,0.1-0.2,0.3c0,0.1,0,0.1,0.1,0.1C5.7,0.7,5.7,0.7,5.8,0.7L5.8,0.7z"/>
<path class="st0" d="M6.1,0.7c0,0-0.1,0-0.1,0c-0.1,0-0.2-0.1-0.2-0.2c0-0.1,0.1-0.3,0.2-0.3c0.1,0,0.1,0.1,0.1,0.1
	c0,0.1-0.2,0.1-0.3,0.1c0,0,0,0.1,0,0.1c0,0.1,0.1,0.1,0.1,0.1C6.1,0.7,6.1,0.7,6.1,0.7L6.1,0.7z M6.1,0.3C6,0.3,5.9,0.4,5.9,0.5
	C6,0.5,6.1,0.5,6.1,0.3C6.1,0.3,6.1,0.3,6.1,0.3z"/>
<path class="st1" d="M6.3,0.8L6.3,0.8c0-0.1-0.1-0.1-0.1-0.1l0.1-0.1c0,0,0.1,0.1,0.2,0.1c0.1,0,0.1,0,0.1-0.1c0,0,0-0.1-0.1-0.1
	c-0.1,0-0.1-0.1-0.1-0.2c0-0.1,0.1-0.2,0.2-0.2l0-0.1h0.1l0,0.1c0.1,0,0.1,0,0.1,0L6.7,0.3c0,0-0.1,0-0.1,0c-0.1,0-0.1,0-0.1,0
	c0,0,0,0,0.1,0.1c0.1,0,0.1,0.1,0.1,0.2c0,0.1-0.1,0.2-0.2,0.2L6.3,0.8L6.3,0.8z"/>
</svg>
