<?xml version="1.0" encoding="utf-8"?>
<!-- Generator: Adobe Illustrator 24.1.1, SVG Export Plug-In . SVG Version: 6.00 Build 0)  -->
<svg version="1.1" id="Capa_1" xmlns="http://www.w3.org/2000/svg" xmlns:xlink="http://www.w3.org/1999/xlink" x="0px" y="0px"
	 viewBox="0 0 512 512" style="enable-background:new 0 0 512 512;" xml:space="preserve">
<style type="text/css">
	.st0{fill:#79BA1C;}
	.st1{fill:#FFFFFF;}
</style>
<g>
	<g>
		<path class="st0" d="M256,0C114.83,0,0,114.83,0,256s114.83,256,256,256s256-114.85,256-256S397.17,0,256,0z"/>
	</g>
</g>
<g>
	<g>
		<path class="st1" d="M369.23,283.37l-99.15-99.15c-7.73-7.69-20.23-7.69-27.96,0l-99.15,99.15c-6.37,7.42-6.37,18.38,0,25.8
			c7.12,8.31,19.65,9.28,27.96,2.16L256,226.26l85.27,85.07c7.73,7.69,20.23,7.69,27.96,0C376.92,303.59,376.92,291.1,369.23,283.37
			z"/>
	</g>
</g>
</svg>
