<?xml version="1.0" encoding="utf-8"?>
<!-- Generator: Adobe Illustrator 24.1.1, SVG Export Plug-In . SVG Version: 6.00 Build 0)  -->
<svg version="1.1" id="Capa_1" xmlns="http://www.w3.org/2000/svg" xmlns:xlink="http://www.w3.org/1999/xlink" x="0px" y="0px"
	 viewBox="0 0 512 512" style="enable-background:new 0 0 512 512;" xml:space="preserve">
<style type="text/css">
	.st0{fill:#FF0000;}
	.st1{fill:#FFFFFF;}
</style>
<g>
	<g>
		<path class="st0" d="M256,0C114.83,0,0,114.83,0,256s114.83,256,256,256s256-114.85,256-256S397.17,0,256,0z"/>
	</g>
</g>
<g>
	<g>
		<path class="st1" d="M368.23,202.84c-7.12-8.31-19.65-9.28-27.96-2.16l-85.27,85.07l-85.07-85.07c-7.73-7.69-20.23-7.69-27.96,0
			c-7.69,7.73-7.69,20.23,0,27.96l99.15,99.15c7.73,7.69,20.23,7.69,27.96,0l99.15-99.15C374.6,221.22,374.6,210.25,368.23,202.84z"
			/>
	</g>
</g>
</svg>
